<svg width="556" height="691" viewBox="0 0 556 691" fill="none" xmlns="http://www.w3.org/2000/svg">
<path d="M20 90H536C546.493 90 555 98.5066 555 109V590C555 600.493 546.493 609 536 609H20C9.50659 609 1 600.493 1 590V109C1 98.5066 9.50659 90 20 90Z" fill="white" stroke="#FF7800" stroke-width="2"/>
<circle cx="34.0504" cy="120.681" r="7.31896" fill="#FF7800"/>
<circle cx="58.4474" cy="120.681" r="7.31896" fill="#FF7800"/>
<circle cx="82.8439" cy="120.681" r="7.31896" fill="#FF7800"/>
<path opacity="0.8" d="M169.008 112.378L169.008 166.524" stroke="#FCA55C" stroke-linecap="round"/>
<path opacity="0.8" d="M256.008 112.378L256.008 166.524" stroke="#78C145" stroke-linecap="round"/>
<path opacity="0.8" d="M343.008 113.008L343.008 167.154" stroke="#EDB32A" stroke-linecap="round"/>
<path d="M251 494.61H101" stroke="#FCA55C" stroke-linecap="round"/>
<path d="M176 456.61V555.61" stroke="#FCA55C" stroke-linecap="round"/>
<path d="M353 456V555" stroke="#FCA55C" stroke-linecap="round"/>
<path d="M101 545.996L101 495.61" stroke="#FCA55C" stroke-linecap="round"/>
<path d="M251 545.996L251 495.61" stroke="#FCA55C" stroke-linecap="round"/>
<g filter="url(#filter0_d)">
<rect x="305" y="482.61" width="95.5081" height="93.252" rx="16" fill="white"/>
<rect x="305.5" y="483.11" width="94.5081" height="92.252" rx="15.5" stroke="#FF7800"/>
</g>
<path d="M334.278 498.701H336.441V505.899H335.039V501.031C335.039 500.891 335.041 500.695 335.044 500.445C335.047 500.191 335.049 499.995 335.049 499.859L333.687 505.899H332.227L330.874 499.859C330.874 499.995 330.876 500.191 330.879 500.445C330.882 500.695 330.884 500.891 330.884 501.031V505.899H329.483V498.701H331.67L332.979 504.361L334.278 498.701ZM340.659 503.311C340.571 503.366 340.482 503.412 340.391 503.448C340.303 503.48 340.181 503.511 340.025 503.54L339.712 503.599C339.419 503.651 339.209 503.714 339.082 503.789C338.867 503.916 338.76 504.113 338.76 504.38C338.76 504.618 338.825 504.79 338.955 504.898C339.089 505.002 339.25 505.054 339.439 505.054C339.738 505.054 340.013 504.966 340.264 504.79C340.518 504.615 340.65 504.294 340.659 503.828V503.311ZM339.815 502.661C340.072 502.629 340.256 502.588 340.366 502.539C340.565 502.455 340.664 502.323 340.664 502.144C340.664 501.926 340.588 501.776 340.435 501.695C340.285 501.61 340.064 501.568 339.771 501.568C339.442 501.568 339.209 501.649 339.072 501.812C338.975 501.932 338.91 502.095 338.877 502.3H337.534C337.564 501.835 337.694 501.452 337.925 501.153C338.293 500.684 338.924 500.449 339.82 500.449C340.402 500.449 340.92 500.565 341.372 500.796C341.825 501.027 342.051 501.463 342.051 502.105V504.546C342.051 504.715 342.054 504.92 342.061 505.161C342.07 505.344 342.098 505.467 342.144 505.532C342.189 505.598 342.258 505.651 342.349 505.694V505.899H340.835C340.793 505.791 340.764 505.69 340.747 505.596C340.731 505.502 340.718 505.394 340.708 505.274C340.516 505.482 340.295 505.659 340.044 505.806C339.745 505.978 339.406 506.065 339.028 506.065C338.547 506.065 338.148 505.928 337.832 505.655C337.52 505.378 337.363 504.987 337.363 504.483C337.363 503.828 337.616 503.355 338.12 503.062C338.397 502.902 338.804 502.788 339.341 502.72L339.815 502.661ZM346.182 500.449C346.208 500.449 346.229 500.451 346.245 500.454C346.265 500.454 346.306 500.456 346.367 500.459V501.885C346.279 501.875 346.201 501.869 346.133 501.865C346.065 501.862 346.009 501.861 345.967 501.861C345.407 501.861 345.031 502.043 344.839 502.407C344.732 502.613 344.678 502.928 344.678 503.355V505.899H343.277V500.576H344.605V501.504C344.82 501.149 345.007 500.907 345.166 500.777C345.427 500.559 345.765 500.449 346.182 500.449ZM347.173 498.726H348.54V502.603L350.274 500.601H351.997L350.137 502.637L352.07 505.899H350.391L349.116 503.623L348.54 504.224V505.899H347.173V498.726ZM354.854 501.582C354.531 501.582 354.281 501.683 354.102 501.885C353.926 502.087 353.815 502.36 353.77 502.705H355.933C355.91 502.337 355.798 502.059 355.596 501.87C355.397 501.678 355.15 501.582 354.854 501.582ZM354.854 500.435C355.296 500.435 355.695 500.518 356.05 500.684C356.405 500.85 356.698 501.112 356.929 501.47C357.137 501.786 357.272 502.152 357.334 502.569C357.37 502.813 357.385 503.164 357.378 503.623H353.736C353.755 504.157 353.923 504.531 354.238 504.746C354.431 504.88 354.662 504.947 354.932 504.947C355.218 504.947 355.451 504.865 355.63 504.702C355.728 504.615 355.814 504.492 355.889 504.336H357.31C357.274 504.652 357.11 504.973 356.817 505.298C356.361 505.816 355.723 506.074 354.903 506.074C354.225 506.074 353.628 505.856 353.111 505.42C352.593 504.984 352.334 504.274 352.334 503.291C352.334 502.37 352.567 501.664 353.032 501.172C353.501 500.681 354.108 500.435 354.854 500.435ZM357.774 501.616V500.625H358.516V499.141H359.893V500.625H360.757V501.616H359.893V504.429C359.893 504.647 359.92 504.784 359.976 504.839C360.031 504.891 360.2 504.917 360.484 504.917C360.526 504.917 360.57 504.917 360.615 504.917C360.664 504.914 360.711 504.911 360.757 504.907V505.948L360.098 505.972C359.44 505.995 358.991 505.881 358.75 505.63C358.594 505.471 358.516 505.225 358.516 504.893V501.616H357.774ZM363.081 499.942H361.67V498.657H363.081V499.942ZM361.67 500.576H363.081V505.899H361.67V500.576ZM367.383 500.449C367.933 500.449 368.382 500.594 368.731 500.884C369.082 501.17 369.258 501.647 369.258 502.315V505.899H367.832V502.661C367.832 502.381 367.795 502.167 367.72 502.017C367.583 501.743 367.323 501.607 366.939 501.607C366.467 501.607 366.143 501.807 365.967 502.207C365.876 502.419 365.83 502.689 365.83 503.018V505.899H364.444V500.586H365.786V501.363C365.965 501.089 366.135 500.892 366.294 500.772C366.581 500.557 366.944 500.449 367.383 500.449ZM372.832 504.756C373.158 504.756 373.433 504.634 373.657 504.39C373.882 504.142 373.994 503.75 373.994 503.213C373.994 502.709 373.887 502.324 373.672 502.061C373.46 501.797 373.176 501.665 372.818 501.665C372.329 501.665 371.992 501.895 371.807 502.354C371.709 502.598 371.66 502.899 371.66 503.257C371.66 503.566 371.712 503.841 371.817 504.082C372.005 504.531 372.344 504.756 372.832 504.756ZM372.486 500.449C372.752 500.449 372.985 500.49 373.184 500.572C373.522 500.712 373.796 500.969 374.004 501.343V500.576H375.357V505.625C375.357 506.312 375.241 506.83 375.01 507.178C374.613 507.777 373.851 508.076 372.725 508.076C372.044 508.076 371.489 507.943 371.06 507.676C370.63 507.409 370.392 507.01 370.347 506.48H371.861C371.9 506.642 371.963 506.76 372.051 506.831C372.201 506.958 372.453 507.022 372.808 507.022C373.309 507.022 373.644 506.854 373.814 506.519C373.924 506.304 373.98 505.943 373.98 505.435V505.093C373.846 505.321 373.703 505.492 373.55 505.606C373.273 505.817 372.914 505.923 372.471 505.923C371.787 505.923 371.24 505.684 370.83 505.205C370.423 504.724 370.22 504.073 370.22 503.252C370.22 502.461 370.417 501.797 370.811 501.26C371.205 500.72 371.763 500.449 372.486 500.449ZM327.315 518.179H329.141L328.242 515.347L327.315 518.179ZM327.407 513.701H329.107L331.655 520.899H330.025L329.561 519.419H326.909L326.411 520.899H324.839L327.407 513.701ZM333.848 515.576V518.784C333.848 519.087 333.884 519.315 333.955 519.468C334.082 519.738 334.331 519.873 334.702 519.873C335.178 519.873 335.503 519.681 335.679 519.297C335.77 519.089 335.816 518.814 335.816 518.472V515.576H337.227V520.899H335.874V520.147C335.861 520.163 335.829 520.212 335.777 520.293C335.724 520.375 335.663 520.446 335.591 520.508C335.373 520.703 335.161 520.837 334.956 520.908C334.754 520.98 334.517 521.016 334.243 521.016C333.456 521.016 332.925 520.733 332.652 520.166C332.499 519.854 332.422 519.393 332.422 518.784V515.576H333.848ZM338.028 516.616V515.625H338.77V514.141H340.147V515.625H341.011V516.616H340.147V519.429C340.147 519.647 340.174 519.784 340.23 519.839C340.285 519.891 340.454 519.917 340.737 519.917C340.78 519.917 340.824 519.917 340.869 519.917C340.918 519.914 340.965 519.911 341.011 519.907V520.948L340.352 520.972C339.694 520.995 339.245 520.881 339.004 520.63C338.848 520.471 338.77 520.225 338.77 519.893V516.616H338.028ZM344.292 519.917C344.699 519.917 345.012 519.772 345.23 519.483C345.448 519.193 345.557 518.781 345.557 518.247C345.557 517.713 345.448 517.303 345.23 517.017C345.012 516.727 344.699 516.582 344.292 516.582C343.885 516.582 343.571 516.727 343.35 517.017C343.132 517.303 343.023 517.713 343.023 518.247C343.023 518.781 343.132 519.193 343.35 519.483C343.571 519.772 343.885 519.917 344.292 519.917ZM347.017 518.247C347.017 519.029 346.792 519.698 346.343 520.254C345.894 520.808 345.212 521.084 344.297 521.084C343.382 521.084 342.7 520.808 342.251 520.254C341.802 519.698 341.577 519.029 341.577 518.247C341.577 517.479 341.802 516.813 342.251 516.25C342.7 515.687 343.382 515.406 344.297 515.406C345.212 515.406 345.894 515.687 346.343 516.25C346.792 516.813 347.017 517.479 347.017 518.247ZM353.965 515.459C354.199 515.459 354.431 515.505 354.658 515.596C354.886 515.687 355.093 515.847 355.278 516.074C355.428 516.26 355.529 516.488 355.581 516.758C355.614 516.937 355.63 517.199 355.63 517.544L355.62 520.899H354.195V517.51C354.195 517.308 354.162 517.142 354.097 517.012C353.973 516.765 353.745 516.641 353.413 516.641C353.029 516.641 352.764 516.8 352.617 517.119C352.542 517.289 352.505 517.492 352.505 517.73V520.899H351.104V517.73C351.104 517.414 351.071 517.184 351.006 517.041C350.889 516.784 350.659 516.656 350.318 516.656C349.92 516.656 349.653 516.784 349.517 517.041C349.442 517.188 349.404 517.406 349.404 517.696V520.899H347.993V515.586H349.346V516.363C349.518 516.086 349.681 515.889 349.834 515.772C350.104 515.563 350.454 515.459 350.884 515.459C351.291 515.459 351.62 515.549 351.87 515.728C352.072 515.894 352.225 516.107 352.329 516.367C352.512 516.055 352.738 515.825 353.008 515.679C353.294 515.532 353.613 515.459 353.965 515.459ZM359.849 518.311C359.761 518.366 359.671 518.412 359.58 518.448C359.492 518.48 359.37 518.511 359.214 518.54L358.902 518.599C358.609 518.651 358.399 518.714 358.272 518.789C358.057 518.916 357.949 519.113 357.949 519.38C357.949 519.618 358.014 519.79 358.145 519.898C358.278 520.002 358.439 520.054 358.628 520.054C358.928 520.054 359.203 519.966 359.453 519.79C359.707 519.615 359.839 519.294 359.849 518.828V518.311ZM359.004 517.661C359.261 517.629 359.445 517.588 359.556 517.539C359.754 517.455 359.854 517.323 359.854 517.144C359.854 516.926 359.777 516.776 359.624 516.695C359.474 516.61 359.253 516.568 358.96 516.568C358.631 516.568 358.399 516.649 358.262 516.812C358.164 516.932 358.099 517.095 358.067 517.3H356.724C356.753 516.835 356.883 516.452 357.114 516.153C357.482 515.684 358.114 515.449 359.009 515.449C359.592 515.449 360.109 515.565 360.562 515.796C361.014 516.027 361.24 516.463 361.24 517.105V519.546C361.24 519.715 361.244 519.92 361.25 520.161C361.26 520.344 361.288 520.467 361.333 520.532C361.379 520.598 361.447 520.651 361.538 520.694V520.899H360.025C359.982 520.791 359.953 520.69 359.937 520.596C359.92 520.502 359.907 520.394 359.898 520.274C359.706 520.482 359.484 520.659 359.234 520.806C358.934 520.978 358.596 521.065 358.218 521.065C357.736 521.065 357.337 520.928 357.022 520.655C356.709 520.378 356.553 519.987 356.553 519.483C356.553 518.828 356.805 518.355 357.31 518.062C357.586 517.902 357.993 517.788 358.53 517.72L359.004 517.661ZM361.934 516.616V515.625H362.676V514.141H364.053V515.625H364.917V516.616H364.053V519.429C364.053 519.647 364.081 519.784 364.136 519.839C364.191 519.891 364.361 519.917 364.644 519.917C364.686 519.917 364.73 519.917 364.776 519.917C364.824 519.914 364.872 519.911 364.917 519.907V520.948L364.258 520.972C363.6 520.995 363.151 520.881 362.91 520.63C362.754 520.471 362.676 520.225 362.676 519.893V516.616H361.934ZM367.241 514.942H365.83V513.657H367.241V514.942ZM365.83 515.576H367.241V520.899H365.83V515.576ZM370.982 519.917C371.389 519.917 371.701 519.772 371.919 519.483C372.137 519.193 372.246 518.781 372.246 518.247C372.246 517.713 372.137 517.303 371.919 517.017C371.701 516.727 371.389 516.582 370.982 516.582C370.575 516.582 370.261 516.727 370.039 517.017C369.821 517.303 369.712 517.713 369.712 518.247C369.712 518.781 369.821 519.193 370.039 519.483C370.261 519.772 370.575 519.917 370.982 519.917ZM373.706 518.247C373.706 519.029 373.482 519.698 373.032 520.254C372.583 520.808 371.901 521.084 370.986 521.084C370.072 521.084 369.39 520.808 368.941 520.254C368.491 519.698 368.267 519.029 368.267 518.247C368.267 517.479 368.491 516.813 368.941 516.25C369.39 515.687 370.072 515.406 370.986 515.406C371.901 515.406 372.583 515.687 373.032 516.25C373.482 516.813 373.706 517.479 373.706 518.247ZM377.656 515.449C378.207 515.449 378.656 515.594 379.004 515.884C379.356 516.17 379.531 516.647 379.531 517.315V520.899H378.106V517.661C378.106 517.381 378.068 517.167 377.993 517.017C377.857 516.743 377.596 516.607 377.212 516.607C376.74 516.607 376.416 516.807 376.24 517.207C376.149 517.419 376.104 517.689 376.104 518.018V520.899H374.717V515.586H376.06V516.363C376.239 516.089 376.408 515.892 376.568 515.772C376.854 515.557 377.217 515.449 377.656 515.449Z" fill="#1F2642"/>
<rect x="328.041" y="545.82" width="8.85724" height="16.0537" rx="4" fill="#FF7800"/>
<rect x="341.327" y="540.838" width="8.85724" height="21.0359" rx="4" fill="#FF7800"/>
<rect x="354.612" y="535.302" width="8.85724" height="26.5717" rx="4" fill="#FF7800"/>
<rect x="368.009" y="529.988" width="8.85724" height="31.886" rx="4" fill="#FF7800"/>
<g filter="url(#filter1_d)">
<rect x="72" y="522.61" width="57.9065" height="57.9065" rx="16" fill="white"/>
<rect x="72.5" y="523.11" width="56.9065" height="56.9065" rx="15.5" stroke="#FF7800"/>
</g>
<path d="M113.455 536.71H87.6983C87.2745 536.711 86.8681 536.879 86.5684 537.179C86.2687 537.478 86.1003 537.885 86.1001 538.309V564.065C86.1003 564.489 86.2687 564.896 86.5684 565.195C86.8681 565.495 87.2745 565.664 87.6983 565.664H100.577V554.289H97.1159V550.153H100.577V546.857C100.577 543.118 103.17 541.082 106.511 541.082C108.109 541.082 109.828 541.202 110.228 541.255V545.161H107.566C105.749 545.161 105.402 546.02 105.402 547.287V550.153H109.733L109.167 554.289H105.402V565.664H113.455C113.879 565.664 114.285 565.495 114.585 565.195C114.885 564.896 115.053 564.489 115.053 564.065V538.309C115.053 537.885 114.885 537.478 114.585 537.179C114.285 536.879 113.879 536.711 113.455 536.71V536.71Z" fill="#4968AD"/>
<g filter="url(#filter2_d)">
<rect x="222" y="522.61" width="57.9065" height="57.9065" rx="16" fill="white"/>
<rect x="222.5" y="523.11" width="56.9065" height="56.9065" rx="15.5" stroke="#FF7800"/>
</g>
<g clip-path="url(#clip0)">
<path d="M244.664 566.2C242.871 566.2 241.072 566.262 239.28 566.193C237.159 566.103 235.537 564.234 235.537 562.006C235.537 554.813 235.55 547.619 235.537 540.418C235.537 537.957 237.369 536.239 239.477 536.177C241.682 536.115 243.895 536.163 246.108 536.163C246.148 536.163 246.2 536.143 246.219 536.211C246.206 536.336 246.087 536.349 246.016 536.398C244.716 537.198 243.528 538.156 242.529 539.343C240.881 541.302 239.739 543.55 239.351 546.164C238.668 550.779 240.04 554.695 243.146 557.966C243.697 558.552 243.769 559.007 243.329 559.794C242.798 560.738 241.99 561.381 241.13 561.966C241.038 562.02 240.946 562.09 240.854 562.152C240.717 562.277 240.802 562.339 240.92 562.394C240.946 562.456 240.979 562.51 241.017 562.566C241.773 563.27 242.488 564.021 243.23 564.738C243.578 565.076 243.927 565.428 244.261 565.78C244.4 565.91 244.631 565.952 244.664 566.2Z" fill="#2369EF"/>
<path d="M244.664 566.201C244.631 565.96 244.402 565.918 244.264 565.774C243.929 565.414 243.581 565.07 243.233 564.733C242.491 564.015 241.776 563.264 241.02 562.56C240.98 562.506 240.948 562.45 240.922 562.388C242.596 562.733 244.231 562.498 245.84 561.98C246.385 561.808 246.93 561.635 247.481 561.49C247.856 561.387 248.25 561.408 248.61 561.545C252.772 563.048 256.883 562.911 260.928 561.048C262.576 560.283 264.08 559.206 265.354 557.862C265.419 557.793 265.465 557.689 265.583 557.683C265.642 557.779 265.61 557.883 265.61 557.986V562.021C265.623 564.325 263.863 566.2 261.67 566.222H261.637C259.273 566.236 256.909 566.222 254.545 566.222H245.058C244.926 566.209 244.795 566.201 244.664 566.201Z" fill="#2369EF"/>
<path d="M245.687 550.766C246.678 550.766 247.611 550.76 248.537 550.766C249.055 550.772 249.338 551.001 249.39 551.435C249.449 551.98 249.147 552.345 248.583 552.353C247.519 552.367 246.462 552.359 245.398 552.359C245.09 552.359 244.788 552.373 244.479 552.353C244.098 552.333 243.723 552.25 243.54 551.836C243.356 551.422 243.488 551.05 243.737 550.711C244.748 549.359 245.766 548.001 246.783 546.649C246.843 546.567 246.902 546.484 246.961 546.408C246.896 546.291 246.804 546.346 246.724 546.339C246.015 546.333 245.299 546.339 244.59 546.333C244.425 546.333 244.261 546.313 244.104 546.278C243.729 546.188 243.5 545.796 243.585 545.409C243.645 545.147 243.842 544.933 244.091 544.87C244.248 544.829 244.412 544.808 244.577 544.808C245.745 544.802 246.921 544.802 248.09 544.808C248.3 544.802 248.503 544.829 248.707 544.884C249.153 545.043 249.344 545.477 249.167 545.933C249.01 546.327 248.759 546.664 248.51 547.002C247.65 548.153 246.791 549.299 245.93 550.437C245.859 550.524 245.792 550.614 245.687 550.766Z" fill="#2369EF"/>
<path d="M253.304 547.138C253.461 546.925 253.625 546.724 253.895 546.67C254.413 546.559 254.899 546.911 254.906 547.463C254.926 548.843 254.92 550.222 254.906 551.602C254.906 551.961 254.683 552.277 254.361 552.381C254.033 552.512 253.659 552.409 253.442 552.112C253.33 551.968 253.284 551.94 253.126 552.07C252.529 552.581 251.852 552.671 251.124 552.422C249.955 552.022 249.475 551.064 249.345 549.898C249.207 548.636 249.607 547.56 250.684 546.898C251.578 546.338 252.483 546.387 253.304 547.138ZM250.98 549.656C250.993 549.959 251.085 550.249 251.255 550.49C251.609 550.986 252.286 551.09 252.766 550.717C252.845 550.655 252.917 550.579 252.982 550.49C253.35 549.965 253.35 549.103 252.982 548.579C252.799 548.31 252.51 548.151 252.2 548.145C251.479 548.097 250.974 548.683 250.98 549.656ZM257.854 549.696C257.802 547.924 258.912 546.6 260.488 546.552C262.161 546.497 263.383 547.677 263.435 549.401C263.487 551.146 262.47 552.38 260.901 552.545C259.187 552.724 257.829 551.422 257.854 549.696ZM259.503 549.531C259.489 549.877 259.588 550.214 259.785 550.497C260.147 550.994 260.822 551.09 261.296 550.704C261.369 550.65 261.428 550.58 261.487 550.511C261.868 549.987 261.868 549.105 261.493 548.58C261.309 548.319 261.021 548.153 260.711 548.146C260.002 548.103 259.503 548.669 259.503 549.531ZM257.276 548.324C257.276 549.393 257.282 550.462 257.276 551.531C257.282 552.021 256.915 552.427 256.449 552.441C256.37 552.441 256.284 552.435 256.206 552.413C255.877 552.323 255.628 551.957 255.628 551.523V546.041C255.628 545.718 255.622 545.4 255.628 545.075C255.634 544.545 255.957 544.199 256.442 544.199C256.942 544.193 257.276 544.537 257.276 545.089C257.284 546.166 257.276 547.249 257.276 548.324Z" fill="#2369EF"/>
</g>
<g filter="url(#filter3_d)">
<rect x="147" y="522.61" width="57.9065" height="57.9065" rx="16" fill="white"/>
<rect x="147.5" y="523.11" width="56.9065" height="56.9065" rx="15.5" stroke="#FF7800"/>
</g>
<g clip-path="url(#clip1)">
<path d="M191.37 551.917C191.37 550.869 191.283 549.815 191.098 548.784H176.263V554.721H184.758C184.406 556.636 183.273 558.329 181.614 559.406V563.258H186.683C189.659 560.573 191.37 556.607 191.37 551.917Z" fill="#4285F4"/>
<path d="M176.262 566.98C180.504 566.98 184.082 565.614 186.688 563.258L181.62 559.406C180.21 560.346 178.389 560.879 176.268 560.879C172.165 560.879 168.685 558.165 167.437 554.517H162.207V558.488C164.877 563.694 170.315 566.98 176.262 566.98V566.98Z" fill="#34A853"/>
<path d="M167.431 554.517C166.773 552.602 166.773 550.529 167.431 548.614V544.643H162.207C159.976 549 159.976 554.132 162.207 558.488L167.431 554.517V554.517Z" fill="#FBBC04"/>
<path d="M176.262 542.247C178.505 542.213 180.672 543.04 182.296 544.558L186.787 540.157C183.943 537.54 180.169 536.101 176.262 536.146C170.315 536.146 164.877 539.432 162.207 544.643L167.431 548.614C168.674 544.961 172.159 542.247 176.262 542.247V542.247Z" fill="#EA4335"/>
</g>
<g filter="url(#filter4_d)">
<rect x="153.016" y="193.597" width="331.646" height="261.707" rx="10" fill="#FFFBF8"/>
</g>
<g filter="url(#filter5_d)">
<rect x="134.215" y="174.797" width="331.646" height="261.707" rx="10" fill="#FFF9F4"/>
</g>
<g filter="url(#filter6_d)">
<rect x="114" y="152.236" width="332.398" height="260.955" rx="10" fill="#FF7800"/>
<rect x="115" y="153.236" width="330.398" height="258.955" rx="9" stroke="#FF7800" stroke-width="2"/>
</g>
<path d="M252.989 180.77C252.685 180.386 252.269 180.106 251.741 179.93C251.229 179.738 250.741 179.642 250.277 179.642C250.005 179.642 249.725 179.674 249.437 179.738C249.149 179.802 248.877 179.906 248.621 180.05C248.365 180.178 248.157 180.354 247.997 180.578C247.837 180.802 247.757 181.074 247.757 181.394C247.757 181.906 247.949 182.298 248.333 182.57C248.717 182.842 249.197 183.074 249.773 183.266C250.365 183.458 250.997 183.65 251.669 183.842C252.341 184.034 252.965 184.306 253.541 184.658C254.133 185.01 254.621 185.482 255.005 186.074C255.389 186.666 255.581 187.458 255.581 188.45C255.581 189.394 255.405 190.218 255.053 190.922C254.701 191.626 254.221 192.21 253.613 192.674C253.021 193.138 252.325 193.482 251.525 193.706C250.741 193.93 249.909 194.042 249.029 194.042C247.925 194.042 246.901 193.874 245.957 193.538C245.013 193.202 244.133 192.658 243.317 191.906L245.981 188.978C246.365 189.49 246.845 189.89 247.421 190.178C248.013 190.45 248.621 190.586 249.245 190.586C249.549 190.586 249.853 190.554 250.157 190.49C250.477 190.41 250.757 190.298 250.997 190.154C251.253 190.01 251.453 189.826 251.597 189.602C251.757 189.378 251.837 189.114 251.837 188.81C251.837 188.298 251.637 187.898 251.237 187.61C250.853 187.306 250.365 187.05 249.773 186.842C249.181 186.634 248.541 186.426 247.853 186.218C247.165 186.01 246.525 185.73 245.933 185.378C245.341 185.026 244.845 184.562 244.445 183.986C244.061 183.41 243.869 182.65 243.869 181.706C243.869 180.794 244.045 179.994 244.397 179.306C244.765 178.618 245.245 178.042 245.837 177.578C246.445 177.114 247.141 176.77 247.925 176.546C248.709 176.306 249.517 176.186 250.349 176.186C251.309 176.186 252.237 176.322 253.133 176.594C254.029 176.866 254.837 177.322 255.557 177.962L252.989 180.77ZM260.77 176.618H264.514V182.954H271.786V176.618H275.53V193.61H271.786V186.266H264.514V193.61H260.77V176.618ZM280.469 185.114C280.469 183.754 280.693 182.522 281.141 181.418C281.605 180.314 282.245 179.378 283.061 178.61C283.877 177.826 284.845 177.226 285.965 176.81C287.085 176.394 288.309 176.186 289.637 176.186C290.965 176.186 292.189 176.394 293.309 176.81C294.429 177.226 295.397 177.826 296.213 178.61C297.029 179.378 297.661 180.314 298.109 181.418C298.573 182.522 298.805 183.754 298.805 185.114C298.805 186.474 298.573 187.706 298.109 188.81C297.661 189.914 297.029 190.858 296.213 191.642C295.397 192.41 294.429 193.002 293.309 193.418C292.189 193.834 290.965 194.042 289.637 194.042C288.309 194.042 287.085 193.834 285.965 193.418C284.845 193.002 283.877 192.41 283.061 191.642C282.245 190.858 281.605 189.914 281.141 188.81C280.693 187.706 280.469 186.474 280.469 185.114ZM284.357 185.114C284.357 185.914 284.477 186.65 284.717 187.322C284.973 187.978 285.333 188.554 285.797 189.05C286.261 189.53 286.813 189.906 287.453 190.178C288.109 190.45 288.837 190.586 289.637 190.586C290.437 190.586 291.157 190.45 291.797 190.178C292.453 189.906 293.013 189.53 293.477 189.05C293.941 188.554 294.293 187.978 294.533 187.322C294.789 186.65 294.917 185.914 294.917 185.114C294.917 184.33 294.789 183.602 294.533 182.93C294.293 182.258 293.941 181.682 293.477 181.202C293.013 180.706 292.453 180.322 291.797 180.05C291.157 179.778 290.437 179.642 289.637 179.642C288.837 179.642 288.109 179.778 287.453 180.05C286.813 180.322 286.261 180.706 285.797 181.202C285.333 181.682 284.973 182.258 284.717 182.93C284.477 183.602 284.357 184.33 284.357 185.114ZM303.75 176.618H310.062C310.942 176.618 311.774 176.698 312.558 176.858C313.342 177.018 314.022 177.298 314.598 177.698C315.19 178.082 315.654 178.61 315.99 179.282C316.342 179.938 316.518 180.77 316.518 181.778C316.518 182.77 316.358 183.602 316.038 184.274C315.718 184.946 315.278 185.482 314.718 185.882C314.158 186.282 313.494 186.57 312.726 186.746C311.958 186.906 311.126 186.986 310.23 186.986H307.494V193.61H303.75V176.618ZM307.494 183.818H309.99C310.326 183.818 310.646 183.786 310.95 183.722C311.27 183.658 311.55 183.554 311.79 183.41C312.046 183.25 312.246 183.042 312.39 182.786C312.55 182.514 312.63 182.178 312.63 181.778C312.63 181.346 312.526 181.002 312.318 180.746C312.126 180.474 311.87 180.266 311.55 180.122C311.246 179.978 310.902 179.89 310.518 179.858C310.134 179.81 309.766 179.786 309.414 179.786H307.494V183.818Z" fill="white"/>
<rect x="137.976" y="218.415" width="153.415" height="153.415" rx="10" fill="#FF9F4B"/>
<rect x="304.175" y="234.959" width="107.541" height="7.52033" rx="3.76016" fill="#F5F6F8"/>
<rect x="304.175" y="250.752" width="107.541" height="8.27236" rx="4" fill="#F5F6F8"/>
<rect x="304.175" y="267.297" width="107.541" height="8.27236" rx="4" fill="#F5F6F8"/>
<rect x="304.175" y="218.415" width="54.8984" height="8.27236" rx="4" fill="#FF9F4B"/>
<rect opacity="0.6" x="304.675" y="294.118" width="77.2114" height="77.2114" rx="15.5" stroke="white" stroke-linecap="round" stroke-dasharray="3 5"/>
<g filter="url(#filter7_d)">
<rect x="258.301" y="266.545" width="78.2114" height="78.2114" rx="16" fill="white"/>
</g>
<path d="M269.866 287.07C269.866 285.813 270.203 284.845 270.877 284.165C271.463 283.572 272.208 283.276 273.113 283.276C274.324 283.276 275.21 283.673 275.77 284.467C276.079 284.913 276.245 285.361 276.268 285.81H274.764C274.666 285.465 274.541 285.205 274.388 285.029C274.114 284.716 273.709 284.56 273.172 284.56C272.625 284.56 272.194 284.781 271.878 285.224C271.562 285.664 271.404 286.287 271.404 287.094C271.404 287.902 271.57 288.507 271.902 288.911C272.238 289.311 272.662 289.511 273.177 289.511C273.704 289.511 274.106 289.339 274.383 288.994C274.536 288.808 274.663 288.53 274.764 288.159H276.253C276.123 288.943 275.789 289.581 275.252 290.073C274.718 290.564 274.033 290.81 273.196 290.81C272.161 290.81 271.347 290.478 270.755 289.814C270.162 289.147 269.866 288.232 269.866 287.07ZM280.228 285.151C280.556 285.151 280.854 285.208 281.121 285.322C281.391 285.436 281.613 285.61 281.785 285.844C281.932 286.043 282.021 286.248 282.054 286.459C282.086 286.668 282.103 287.01 282.103 287.485V290.61H280.682V287.373C280.682 287.086 280.633 286.855 280.535 286.679C280.408 286.432 280.167 286.308 279.812 286.308C279.445 286.308 279.165 286.432 278.973 286.679C278.784 286.923 278.689 287.273 278.689 287.729V290.61H277.303V283.437H278.689V285.981C278.891 285.672 279.124 285.457 279.388 285.336C279.655 285.213 279.935 285.151 280.228 285.151ZM284.793 285.288V288.496C284.793 288.798 284.829 289.026 284.9 289.179C285.027 289.449 285.276 289.584 285.647 289.584C286.123 289.584 286.448 289.392 286.624 289.008C286.715 288.8 286.761 288.525 286.761 288.183V285.288H288.172V290.61H286.819V289.858C286.806 289.874 286.774 289.923 286.722 290.004C286.67 290.086 286.608 290.157 286.536 290.219C286.318 290.415 286.106 290.548 285.901 290.62C285.7 290.691 285.462 290.727 285.188 290.727C284.401 290.727 283.87 290.444 283.597 289.877C283.444 289.565 283.367 289.104 283.367 288.496V285.288H284.793ZM292.454 288.022C292.366 288.077 292.277 288.123 292.186 288.159C292.098 288.191 291.976 288.222 291.819 288.251L291.507 288.31C291.214 288.362 291.004 288.426 290.877 288.5C290.662 288.627 290.555 288.824 290.555 289.091C290.555 289.329 290.62 289.501 290.75 289.609C290.883 289.713 291.045 289.765 291.233 289.765C291.533 289.765 291.808 289.677 292.059 289.501C292.312 289.326 292.444 289.005 292.454 288.54V288.022ZM291.609 287.373C291.867 287.34 292.05 287.299 292.161 287.25C292.36 287.166 292.459 287.034 292.459 286.855C292.459 286.637 292.382 286.487 292.229 286.406C292.08 286.321 291.858 286.279 291.565 286.279C291.237 286.279 291.004 286.36 290.867 286.523C290.77 286.643 290.704 286.806 290.672 287.011H289.329C289.358 286.546 289.489 286.163 289.72 285.864C290.088 285.395 290.719 285.161 291.614 285.161C292.197 285.161 292.715 285.276 293.167 285.507C293.619 285.738 293.846 286.175 293.846 286.816V289.257C293.846 289.427 293.849 289.632 293.855 289.873C293.865 290.055 293.893 290.179 293.938 290.244C293.984 290.309 294.052 290.362 294.144 290.405V290.61H292.63C292.588 290.502 292.558 290.402 292.542 290.307C292.526 290.213 292.513 290.105 292.503 289.985C292.311 290.193 292.09 290.371 291.839 290.517C291.539 290.69 291.201 290.776 290.823 290.776C290.341 290.776 289.943 290.639 289.627 290.366C289.314 290.089 289.158 289.698 289.158 289.194C289.158 288.54 289.41 288.066 289.915 287.773C290.192 287.613 290.599 287.5 291.136 287.431L291.609 287.373ZM293.348 284.814H292.215L291.58 283.994L290.94 284.814H289.808L290.955 283.354H292.205L293.348 284.814ZM293.23 282.768C293.195 282.739 293.159 282.718 293.123 282.705C293.087 282.688 293.017 282.679 292.913 282.675L292.654 282.67L292.635 282.285C292.706 282.275 292.785 282.267 292.869 282.26C292.957 282.254 293.034 282.25 293.099 282.25C293.265 282.25 293.426 282.278 293.582 282.333C293.738 282.386 293.87 282.488 293.978 282.641C294.007 282.683 294.031 282.739 294.051 282.807C294.074 282.875 294.085 282.949 294.085 283.027C294.085 283.092 294.075 283.159 294.056 283.227C294.036 283.295 294.002 283.361 293.953 283.422C293.904 283.481 293.838 283.533 293.753 283.579C293.672 283.624 293.569 283.66 293.445 283.686L293.377 283.901H292.703L292.737 283.53C293.007 283.51 293.18 283.455 293.255 283.364C293.333 283.273 293.372 283.173 293.372 283.066C293.372 283.011 293.361 282.958 293.338 282.91C293.315 282.858 293.279 282.81 293.23 282.768ZM298.162 285.161C298.712 285.161 299.161 285.306 299.51 285.595C299.861 285.882 300.037 286.359 300.037 287.026V290.61H298.611V287.373C298.611 287.093 298.574 286.878 298.499 286.728C298.362 286.455 298.102 286.318 297.718 286.318C297.246 286.318 296.922 286.518 296.746 286.918C296.655 287.13 296.609 287.4 296.609 287.729V290.61H295.223V285.297H296.565V286.074C296.744 285.8 296.914 285.603 297.073 285.483C297.36 285.268 297.723 285.161 298.162 285.161ZM305.311 288.388C305.356 288.717 305.446 288.963 305.579 289.125C305.823 289.422 306.242 289.57 306.834 289.57C307.189 289.57 307.477 289.531 307.698 289.453C308.118 289.303 308.328 289.025 308.328 288.618C308.328 288.38 308.224 288.196 308.016 288.066C307.807 287.939 307.48 287.827 307.034 287.729L306.272 287.558C305.524 287.389 305.006 287.205 304.72 287.006C304.235 286.674 303.992 286.155 303.992 285.449C303.992 284.804 304.227 284.269 304.695 283.842C305.164 283.416 305.853 283.203 306.761 283.203C307.519 283.203 308.165 283.404 308.699 283.808C309.236 284.208 309.518 284.791 309.544 285.556H308.099C308.073 285.123 307.884 284.816 307.532 284.633C307.298 284.513 307.007 284.453 306.658 284.453C306.271 284.453 305.962 284.531 305.73 284.687C305.499 284.843 305.384 285.061 305.384 285.341C305.384 285.598 305.498 285.791 305.726 285.917C305.872 286.002 306.185 286.101 306.663 286.215L307.903 286.513C308.447 286.643 308.857 286.818 309.134 287.036C309.563 287.374 309.778 287.864 309.778 288.505C309.778 289.163 309.526 289.71 309.021 290.146C308.52 290.579 307.811 290.795 306.893 290.795C305.955 290.795 305.218 290.582 304.681 290.156C304.144 289.726 303.875 289.137 303.875 288.388H305.311ZM316.214 284.687H312.405V286.215H315.901V287.465H312.405V289.316H316.39V290.61H310.936V283.413H316.214V284.687ZM320.745 289.536C321.341 289.536 321.813 289.316 322.161 288.876C322.513 288.437 322.688 287.812 322.688 287.001C322.688 286.194 322.513 285.571 322.161 285.131C321.813 284.689 321.341 284.467 320.745 284.467C320.149 284.467 319.674 284.687 319.319 285.126C318.965 285.566 318.787 286.191 318.787 287.001C318.787 287.812 318.965 288.437 319.319 288.876C319.674 289.316 320.149 289.536 320.745 289.536ZM324.192 287.001C324.192 288.294 323.829 289.283 323.104 289.97C322.56 290.53 321.774 290.81 320.745 290.81C319.716 290.81 318.93 290.53 318.387 289.97C317.658 289.283 317.293 288.294 317.293 287.001C317.293 285.683 317.658 284.694 318.387 284.033C318.93 283.473 319.716 283.193 320.745 283.193C321.774 283.193 322.56 283.473 323.104 284.033C323.829 284.694 324.192 285.683 324.192 287.001Z" fill="#1F2642"/>
<g filter="url(#filter8_d)">
<rect x="138" y="50" width="62.3781" height="62.3781" rx="8" fill="white"/>
<rect x="138.5" y="50.5" width="61.3781" height="61.3781" rx="7.5" stroke="#FF7800"/>
</g>
<path d="M169.258 97.8108V94.2411L169.223 83.7184C169.218 82.632 168.943 81.5663 168.419 80.6247L166.037 76.3515L164.888 74.2925L162.252 79.0261L162.057 79.3728C161.633 80.1953 161.393 81.1369 161.393 82.1354C161.393 83.0924 161.613 83.9926 162.002 84.7893L162.761 86.1499L168.109 95.7466L169.258 97.8108Z" fill="#FF7800"/>
<path d="M182.027 90.3391C181.303 91.6377 180.314 92.6723 179.166 93.4121L178.666 93.7122C178.666 93.7122 178.666 93.7122 178.661 93.7122L171.805 97.8147V94.245V77.6178V75.2588C171.875 73.9189 172.245 72.5738 172.934 71.3373C173.658 70.0388 174.646 69.0041 175.795 68.2644L176.294 67.9643C176.294 67.9643 176.294 67.9643 176.299 67.9643L183.155 63.8618V67.4314V84.0587V86.4177V86.4229C183.085 87.7576 182.716 89.0975 182.027 90.3391Z" fill="#FF7800"/>
<path d="M158.992 97.8094C161.289 97.8094 163.152 95.88 163.152 93.4999C163.152 91.1198 161.289 89.1904 158.992 89.1904C156.695 89.1904 154.833 91.1198 154.833 93.4999C154.833 95.88 156.695 97.8094 158.992 97.8094Z" fill="#FF7800"/>
<g filter="url(#filter9_d)">
<rect x="225.106" y="50" width="62.3781" height="62.3781" rx="8" fill="white"/>
<rect x="225.606" y="50.5" width="61.3781" height="61.3781" rx="7.5" stroke="#FF7800"/>
</g>
<g clip-path="url(#clip2)">
<g clip-path="url(#clip3)">
<path d="M254.669 69.7881L241.769 82.4823C241.769 82.4823 239.563 84.3318 239.902 86.0131L238.205 83.3229C237.611 82.3141 237.611 81.0531 238.29 80.0443C238.46 79.7921 238.714 79.624 238.969 79.4558L254.669 69.7881Z" fill="#78C145"/>
<path d="M271.983 68.359H259.337C258.573 68.2749 258.404 68.6112 258.404 68.6112L242.618 84.3318L242.449 84.4999C241.515 85.5087 241.345 87.0219 241.939 88.1989C242.024 88.4511 242.194 88.6192 242.364 88.7873L249.577 96.1012L251.954 98.371C252.293 98.7073 252.718 98.9595 253.142 99.1276C253.821 99.3798 254.5 99.3798 255.179 99.2117C255.688 99.0436 256.197 98.7914 256.621 98.371L272.662 82.6504C272.746 82.5664 272.831 82.3982 272.831 82.2301V78.5311V74.4118V69.0315C272.831 68.359 271.983 68.359 271.983 68.359ZM253.057 94.9243C252.887 95.0924 252.548 95.0924 252.378 94.9243L245.843 88.4511C245.674 88.2829 245.674 87.9467 245.843 87.7785C246.013 87.6104 246.352 87.6104 246.522 87.7785L253.057 94.2517C253.227 94.5039 253.227 94.7561 253.057 94.9243ZM253.057 92.6544C252.887 92.8226 252.548 92.8226 252.378 92.6544L247.965 88.2829C247.795 88.1148 247.795 87.7785 247.965 87.6104C248.135 87.4423 248.474 87.4423 248.644 87.6104L253.057 91.9819C253.227 92.15 253.227 92.4863 253.057 92.6544ZM253.227 90.4687C253.057 90.6368 252.718 90.6368 252.548 90.4687L250.087 88.0307C249.917 87.8626 249.917 87.5263 250.087 87.3582C250.256 87.1901 250.596 87.1901 250.766 87.3582L253.227 89.7962C253.397 90.0484 253.397 90.3006 253.227 90.4687ZM263.411 79.1196L262.647 79.7921C263.411 80.8009 263.326 82.2301 262.393 83.1548C262.308 83.2389 262.223 83.323 262.138 83.323L262.053 83.407H261.968H261.798H261.714H261.629C261.459 83.407 261.374 83.323 261.204 83.2389C261.035 83.0708 260.95 82.9026 260.95 82.7345C260.95 82.6504 260.95 82.4823 261.035 82.3982L261.119 82.2301C261.629 81.7257 261.544 80.885 261.035 80.3806C260.441 79.7081 259.846 79.624 259.252 80.2125C258.998 80.4647 258.828 80.8009 258.828 81.2213C258.913 81.6416 259.083 82.146 259.252 82.5664C259.507 83.1548 259.677 83.7433 259.762 84.4158C259.762 85.2565 259.422 86.0131 258.743 86.6016C258.234 87.106 257.555 87.4423 256.876 87.4423C256.282 87.4423 255.688 87.1901 255.179 86.7697L254.16 87.6945L253.142 86.6857L253.227 86.6016L254.16 85.7609C253.397 84.668 253.566 83.1548 254.5 82.2301C254.585 82.146 254.67 82.0619 254.754 82.0619L254.839 81.9779C254.924 81.9779 255.094 81.8938 255.179 81.9779C255.603 82.0619 255.858 82.3142 255.858 82.7345C255.858 82.8186 255.858 82.9867 255.773 83.0708V83.1548C255.688 83.2389 255.688 83.323 255.688 83.323L255.603 83.407C255.094 83.9955 255.179 84.9202 255.773 85.4246C256.027 85.7609 256.367 85.9291 256.706 85.9291C257.046 85.9291 257.385 85.7609 257.64 85.5087C257.979 85.2565 258.149 84.7521 258.064 84.3318C258.064 84.1636 257.979 83.9955 257.895 83.8274C257.81 83.5752 257.64 83.2389 257.47 82.9026C257.385 82.5664 257.3 82.3142 257.216 81.9779C257.131 81.7257 257.131 81.4735 257.131 81.2213C257.131 80.4647 257.555 79.7081 258.149 79.2877C259.083 78.2789 260.61 78.1948 261.629 79.0355L262.647 78.1108L263.666 79.1196H263.411ZM267.739 77.8586C267.4 77.9426 267.06 78.0267 266.721 77.9426C264.769 77.9426 263.156 76.3454 263.156 74.4118C263.156 72.4783 264.854 70.881 266.891 70.881C268.842 70.881 270.455 72.4783 270.455 74.4118C270.37 76.0091 269.352 77.4382 267.739 77.8586Z" fill="#78C145"/>
</g>
</g>
<g filter="url(#filter10_d)">
<rect x="312.238" y="50" width="62.3781" height="62.3781" rx="8" fill="white"/>
<rect x="312.738" y="50.5" width="61.3781" height="61.3781" rx="7.5" stroke="#FF7800"/>
</g>
<path d="M327.677 92.2003L320.06 84.6406C318.123 82.7238 318.123 79.6224 320.06 77.7271L327.699 70.1674C329.635 68.2505 332.769 68.2505 334.684 70.1674L342.323 77.7271C344.26 79.6439 344.26 82.7453 342.323 84.6406L334.684 92.2003C332.747 94.1172 329.614 94.1172 327.677 92.2003Z" fill="#EDB32A"/>
<path opacity="0.5" d="M347.241 97.089L334.685 84.6402C332.748 82.7234 332.748 79.622 334.685 77.7267L347.241 65.2995C349.178 63.3826 352.312 63.3826 354.227 65.2995L366.784 77.7267C368.721 79.6435 368.721 82.7449 366.784 84.6402L354.227 97.0674C352.312 98.9843 349.178 98.9843 347.241 97.089Z" fill="#EDB32A"/>
<g clip-path="url(#clip4)">
<path d="M291.155 330.467H285.233C284.688 330.467 284.246 330.025 284.246 329.48V323.558C284.246 323.013 284.688 322.571 285.233 322.571H291.155C291.7 322.571 292.142 323.013 292.142 323.558V329.48C292.142 330.025 291.7 330.467 291.155 330.467Z" fill="#FF7800"/>
<path d="M301.684 330.467H295.761C295.217 330.467 294.774 330.025 294.774 329.48V316.978C294.774 316.433 295.217 315.991 295.761 315.991H301.684C302.229 315.991 302.671 316.433 302.671 316.978V329.48C302.671 330.025 302.229 330.467 301.684 330.467Z" fill="#FF7800"/>
<path d="M312.212 330.468H306.29C305.745 330.468 305.303 330.025 305.303 329.481V310.398C305.303 309.853 305.745 309.411 306.29 309.411H312.212C312.757 309.411 313.199 309.853 313.199 310.398V329.481C313.199 330.025 312.757 330.468 312.212 330.468Z" fill="#FF7800"/>
<path d="M301.162 299.076C301.035 298.949 300.847 298.877 300.685 298.882C296.964 298.952 292.624 301.123 289.868 304.278C286.886 304.385 284.398 305.283 282.847 306.835C282.678 307.003 282.614 307.25 282.678 307.479C282.743 307.708 282.926 307.884 283.159 307.941L285.961 308.612L285.944 308.63C285.709 308.889 285.72 309.288 285.967 309.536L290.701 314.269C290.829 314.398 290.997 314.462 291.167 314.462C291.325 314.462 291.482 314.406 291.607 314.293L291.625 314.276L292.296 317.078C292.351 317.31 292.528 317.494 292.758 317.558C292.817 317.575 292.877 317.583 292.937 317.583C293.109 317.583 293.277 317.516 293.403 317.391C294.956 315.838 295.853 313.351 295.96 310.369C299.119 307.604 301.286 303.269 301.356 299.552C301.357 299.374 301.289 299.202 301.162 299.076V299.076Z" fill="#FF7800"/>
<path d="M283.872 312.499C282.989 313.382 281.859 317.05 281.641 317.777C281.572 318.008 281.636 318.26 281.806 318.431C281.932 318.556 282.099 318.623 282.272 318.623C282.335 318.623 282.398 318.614 282.461 318.595C283.188 318.378 286.854 317.249 287.739 316.365C288.805 315.299 288.805 313.565 287.739 312.498C286.67 311.432 284.936 311.433 283.872 312.499V312.499Z" fill="#FF7800"/>
</g>
<circle cx="151.512" cy="185.325" r="13.0366" stroke="#FFDBBB"/>
<circle cx="151.512" cy="185.325" r="10.4799" fill="#FF7800"/>
<path d="M150.378 190.248C151.021 190.248 151.542 189.726 151.542 189.084C151.542 188.441 151.021 187.92 150.378 187.92C149.735 187.92 149.214 188.441 149.214 189.084C149.214 189.726 149.735 190.248 150.378 190.248Z" fill="white"/>
<path d="M153.775 187.92C153.132 187.92 152.611 188.441 152.611 189.084C152.611 189.726 153.132 190.248 153.775 190.248C154.417 190.248 154.938 189.726 154.938 189.084C154.938 188.441 154.417 187.92 153.775 187.92Z" fill="white"/>
<path d="M155.758 186.732H149.689L149.571 186.043H154.558C154.705 186.044 154.837 185.954 154.891 185.818L156.078 182.825C156.151 182.642 156.061 182.435 155.878 182.363C155.836 182.347 155.791 182.338 155.746 182.338H148.953L148.668 180.7C148.639 180.526 148.488 180.4 148.312 180.403H146.946C146.749 180.403 146.59 180.562 146.59 180.759C146.59 180.956 146.749 181.115 146.946 181.115H148.015L149.036 187.148C149.065 187.321 149.217 187.447 149.392 187.445H155.758C155.954 187.445 156.114 187.285 156.114 187.089C156.114 186.892 155.954 186.732 155.758 186.732Z" fill="white"/>
<circle cx="169.008" cy="112.378" r="3.00813" fill="#FCA55C"/>
<circle cx="256.008" cy="112.378" r="3.00813" fill="#78C145"/>
<circle cx="343.008" cy="113.008" r="3.00813" fill="#EDB32A"/>
<defs>
<filter id="filter0_d" x="255" y="432.61" width="235.508" height="233.252" filterUnits="userSpaceOnUse" color-interpolation-filters="sRGB">
<feFlood flood-opacity="0" result="BackgroundImageFix"/>
<feColorMatrix in="SourceAlpha" type="matrix" values="0 0 0 0 0 0 0 0 0 0 0 0 0 0 0 0 0 0 127 0"/>
<feOffset dx="20" dy="20"/>
<feGaussianBlur stdDeviation="35"/>
<feColorMatrix type="matrix" values="0 0 0 0 0.829167 0 0 0 0 0.390196 0 0 0 0 0 0 0 0 0.2 0"/>
<feBlend mode="normal" in2="BackgroundImageFix" result="effect1_dropShadow"/>
<feBlend mode="normal" in="SourceGraphic" in2="effect1_dropShadow" result="shape"/>
</filter>
<filter id="filter1_d" x="22" y="472.61" width="217.907" height="217.907" filterUnits="userSpaceOnUse" color-interpolation-filters="sRGB">
<feFlood flood-opacity="0" result="BackgroundImageFix"/>
<feColorMatrix in="SourceAlpha" type="matrix" values="0 0 0 0 0 0 0 0 0 0 0 0 0 0 0 0 0 0 127 0"/>
<feOffset dx="30" dy="30"/>
<feGaussianBlur stdDeviation="40"/>
<feColorMatrix type="matrix" values="0 0 0 0 0.829167 0 0 0 0 0.390196 0 0 0 0 0 0 0 0 0.16 0"/>
<feBlend mode="normal" in2="BackgroundImageFix" result="effect1_dropShadow"/>
<feBlend mode="normal" in="SourceGraphic" in2="effect1_dropShadow" result="shape"/>
</filter>
<filter id="filter2_d" x="172" y="472.61" width="217.907" height="217.907" filterUnits="userSpaceOnUse" color-interpolation-filters="sRGB">
<feFlood flood-opacity="0" result="BackgroundImageFix"/>
<feColorMatrix in="SourceAlpha" type="matrix" values="0 0 0 0 0 0 0 0 0 0 0 0 0 0 0 0 0 0 127 0"/>
<feOffset dx="30" dy="30"/>
<feGaussianBlur stdDeviation="40"/>
<feColorMatrix type="matrix" values="0 0 0 0 0.829167 0 0 0 0 0.390196 0 0 0 0 0 0 0 0 0.16 0"/>
<feBlend mode="normal" in2="BackgroundImageFix" result="effect1_dropShadow"/>
<feBlend mode="normal" in="SourceGraphic" in2="effect1_dropShadow" result="shape"/>
</filter>
<filter id="filter3_d" x="97" y="472.61" width="217.907" height="217.907" filterUnits="userSpaceOnUse" color-interpolation-filters="sRGB">
<feFlood flood-opacity="0" result="BackgroundImageFix"/>
<feColorMatrix in="SourceAlpha" type="matrix" values="0 0 0 0 0 0 0 0 0 0 0 0 0 0 0 0 0 0 127 0"/>
<feOffset dx="30" dy="30"/>
<feGaussianBlur stdDeviation="40"/>
<feColorMatrix type="matrix" values="0 0 0 0 0.829167 0 0 0 0 0.390196 0 0 0 0 0 0 0 0 0.16 0"/>
<feBlend mode="normal" in2="BackgroundImageFix" result="effect1_dropShadow"/>
<feBlend mode="normal" in="SourceGraphic" in2="effect1_dropShadow" result="shape"/>
</filter>
<filter id="filter4_d" x="133.016" y="193.597" width="391.646" height="321.707" filterUnits="userSpaceOnUse" color-interpolation-filters="sRGB">
<feFlood flood-opacity="0" result="BackgroundImageFix"/>
<feColorMatrix in="SourceAlpha" type="matrix" values="0 0 0 0 0 0 0 0 0 0 0 0 0 0 0 0 0 0 127 0"/>
<feOffset dx="10" dy="30"/>
<feGaussianBlur stdDeviation="15"/>
<feColorMatrix type="matrix" values="0 0 0 0 1 0 0 0 0 0.470588 0 0 0 0 0 0 0 0 0.1 0"/>
<feBlend mode="normal" in2="BackgroundImageFix" result="effect1_dropShadow"/>
<feBlend mode="normal" in="SourceGraphic" in2="effect1_dropShadow" result="shape"/>
</filter>
<filter id="filter5_d" x="114.215" y="174.797" width="391.646" height="321.707" filterUnits="userSpaceOnUse" color-interpolation-filters="sRGB">
<feFlood flood-opacity="0" result="BackgroundImageFix"/>
<feColorMatrix in="SourceAlpha" type="matrix" values="0 0 0 0 0 0 0 0 0 0 0 0 0 0 0 0 0 0 127 0"/>
<feOffset dx="10" dy="30"/>
<feGaussianBlur stdDeviation="15"/>
<feColorMatrix type="matrix" values="0 0 0 0 1 0 0 0 0 0.470588 0 0 0 0 0 0 0 0 0.12 0"/>
<feBlend mode="normal" in2="BackgroundImageFix" result="effect1_dropShadow"/>
<feBlend mode="normal" in="SourceGraphic" in2="effect1_dropShadow" result="shape"/>
</filter>
<filter id="filter6_d" x="104" y="142.236" width="372.398" height="300.955" filterUnits="userSpaceOnUse" color-interpolation-filters="sRGB">
<feFlood flood-opacity="0" result="BackgroundImageFix"/>
<feColorMatrix in="SourceAlpha" type="matrix" values="0 0 0 0 0 0 0 0 0 0 0 0 0 0 0 0 0 0 127 0"/>
<feOffset dx="10" dy="10"/>
<feGaussianBlur stdDeviation="10"/>
<feColorMatrix type="matrix" values="0 0 0 0 0.6875 0 0 0 0 0.323529 0 0 0 0 0 0 0 0 0.05 0"/>
<feBlend mode="normal" in2="BackgroundImageFix" result="effect1_dropShadow"/>
<feBlend mode="normal" in="SourceGraphic" in2="effect1_dropShadow" result="shape"/>
</filter>
<filter id="filter7_d" x="208.301" y="216.545" width="238.211" height="238.211" filterUnits="userSpaceOnUse" color-interpolation-filters="sRGB">
<feFlood flood-opacity="0" result="BackgroundImageFix"/>
<feColorMatrix in="SourceAlpha" type="matrix" values="0 0 0 0 0 0 0 0 0 0 0 0 0 0 0 0 0 0 127 0"/>
<feOffset dx="30" dy="30"/>
<feGaussianBlur stdDeviation="40"/>
<feColorMatrix type="matrix" values="0 0 0 0 0.829167 0 0 0 0 0.390196 0 0 0 0 0 0 0 0 0.16 0"/>
<feBlend mode="normal" in2="BackgroundImageFix" result="effect1_dropShadow"/>
<feBlend mode="normal" in="SourceGraphic" in2="effect1_dropShadow" result="shape"/>
</filter>
<filter id="filter8_d" x="88" y="0" width="222.378" height="222.378" filterUnits="userSpaceOnUse" color-interpolation-filters="sRGB">
<feFlood flood-opacity="0" result="BackgroundImageFix"/>
<feColorMatrix in="SourceAlpha" type="matrix" values="0 0 0 0 0 0 0 0 0 0 0 0 0 0 0 0 0 0 127 0"/>
<feOffset dx="30" dy="30"/>
<feGaussianBlur stdDeviation="40"/>
<feColorMatrix type="matrix" values="0 0 0 0 0.829167 0 0 0 0 0.390196 0 0 0 0 0 0 0 0 0.16 0"/>
<feBlend mode="normal" in2="BackgroundImageFix" result="effect1_dropShadow"/>
<feBlend mode="normal" in="SourceGraphic" in2="effect1_dropShadow" result="shape"/>
</filter>
<filter id="filter9_d" x="175.106" y="0" width="222.378" height="222.378" filterUnits="userSpaceOnUse" color-interpolation-filters="sRGB">
<feFlood flood-opacity="0" result="BackgroundImageFix"/>
<feColorMatrix in="SourceAlpha" type="matrix" values="0 0 0 0 0 0 0 0 0 0 0 0 0 0 0 0 0 0 127 0"/>
<feOffset dx="30" dy="30"/>
<feGaussianBlur stdDeviation="40"/>
<feColorMatrix type="matrix" values="0 0 0 0 0.829167 0 0 0 0 0.390196 0 0 0 0 0 0 0 0 0.16 0"/>
<feBlend mode="normal" in2="BackgroundImageFix" result="effect1_dropShadow"/>
<feBlend mode="normal" in="SourceGraphic" in2="effect1_dropShadow" result="shape"/>
</filter>
<filter id="filter10_d" x="262.238" y="0" width="222.378" height="222.378" filterUnits="userSpaceOnUse" color-interpolation-filters="sRGB">
<feFlood flood-opacity="0" result="BackgroundImageFix"/>
<feColorMatrix in="SourceAlpha" type="matrix" values="0 0 0 0 0 0 0 0 0 0 0 0 0 0 0 0 0 0 127 0"/>
<feOffset dx="30" dy="30"/>
<feGaussianBlur stdDeviation="40"/>
<feColorMatrix type="matrix" values="0 0 0 0 0.829167 0 0 0 0 0.390196 0 0 0 0 0 0 0 0 0.16 0"/>
<feBlend mode="normal" in2="BackgroundImageFix" result="effect1_dropShadow"/>
<feBlend mode="normal" in="SourceGraphic" in2="effect1_dropShadow" result="shape"/>
</filter>
<clipPath id="clip0">
<rect width="30.0813" height="30.0813" fill="white" transform="translate(235.537 536.146)"/>
</clipPath>
<clipPath id="clip1">
<rect width="30.8333" height="30.8333" fill="white" transform="translate(160.537 536.146)"/>
</clipPath>
<clipPath id="clip2">
<rect width="35.6446" height="44.5557" fill="white" transform="translate(237.979 58.9111)"/>
</clipPath>
<clipPath id="clip3">
<rect width="35.1354" height="31.0209" fill="white" transform="translate(237.696 68.3589)"/>
</clipPath>
<clipPath id="clip4">
<rect width="31.5854" height="31.5854" fill="white" transform="translate(281.614 298.882)"/>
</clipPath>
</defs>
</svg>
