<svg id="Layer_1" data-name="Layer 1" xmlns="http://www.w3.org/2000/svg" viewBox="0 0 64 64"><defs><style>.cls-1{fill:#bce0a2;}.cls-2{fill:#78c145;}.cls-3{fill:#fff;}</style></defs><title>Untitled-1</title><rect class="cls-1" width="64" height="64" rx="12"/><rect class="cls-2" x="4.28" y="4.28" width="55.44" height="55.44" rx="12"/><path class="cls-3" d="M30.43,17.49,15.24,32.62S12.68,34.84,13,36.8l-2-3.24a3.57,3.57,0,0,1,.1-3.88,4,4,0,0,1,.79-.69Z"/><path class="cls-3" d="M51.9,16.6c0-.83-1-.78-1-.78H36c-.89-.1-1.13.34-1.13.34L16.23,34.82l-.21.23,0,0a4,4,0,0,0-.56,4.42l0,0a2.55,2.55,0,0,0,.52.7l8.54,8.59,2.81,2.73a4.32,4.32,0,0,0,1.42.93,3.69,3.69,0,0,0,2.36.13,3.85,3.85,0,0,0,1.68-1L51.66,32.77a.71.71,0,0,0,.23-.49V27.9h0V23h0ZM44.75,27.22A4.21,4.21,0,1,1,49,23h0a4.24,4.24,0,0,1-3.08,4.08h0A4,4,0,0,1,44.75,27.22ZM49,23h0Z"/><rect class="cls-2" x="24.31" y="39.74" width="5.24" height="1.11" rx="0.56" transform="translate(36.38 -7.24) rotate(45)"/><rect class="cls-2" x="21.41" y="41.17" width="8.42" height="1.11" rx="0.56" transform="translate(37.01 -5.9) rotate(45)"/><rect class="cls-2" x="18.28" y="42.6" width="12.07" height="1.11" rx="0.56" transform="translate(37.64 -4.55) rotate(45)"/><path class="cls-2" d="M40.81,28.6l.39-.35L40,27l-1.21,1.1a2.91,2.91,0,0,0-4.06.27,3.17,3.17,0,0,0-1.17,2.34,2.93,2.93,0,0,0,.11.93A7.4,7.4,0,0,0,34,32.76q.28.7.45,1.14a2.56,2.56,0,0,1,.16.62,1.47,1.47,0,0,1-.54,1.4,1.49,1.49,0,0,1-1.11.49,1.69,1.69,0,0,1-1.1-.65,1.67,1.67,0,0,1-.11-2.44s.07-.09.14-.18l.05-.08a.83.83,0,0,0,.07-.38.93.93,0,0,0-.81-.91,1.25,1.25,0,0,0-.43.05l-.12.06a.87.87,0,0,0-.28.21,3.24,3.24,0,0,0-.4,4.17l-1.1,1h0l0,0-.12.11h0l0,0,1.21,1.21,1.19-1.08a3.2,3.2,0,0,0,2,.75h0a3.4,3.4,0,0,0,2.25-1,3.26,3.26,0,0,0,1.19-2.56A6.74,6.74,0,0,0,36,32.5a4.78,4.78,0,0,1-.51-1.57A1.43,1.43,0,0,1,36,29.76c.72-.65,1.37-.58,2.1.22a1.58,1.58,0,0,1,.1,2.22l-.14.21a.84.84,0,0,0-.08.4.87.87,0,0,0,.27.63,1,1,0,0,0,.46.25l.15,0h.06l.17,0,.09,0,.13-.06a1.07,1.07,0,0,0,.32-.24,3.15,3.15,0,0,0,.29-4l.88-.8Z"/></svg>