<?xml version="1.0" encoding="utf-8"?>
<!-- Generator: Adobe Illustrator 22.0.0, SVG Export Plug-In . SVG Version: 6.00 Build 0)  -->
<svg version="1.1" id="Layer_1" xmlns="http://www.w3.org/2000/svg" xmlns:xlink="http://www.w3.org/1999/xlink" x="0px" y="0px"
	 viewBox="0 0 95 95" style="enable-background:new 0 0 95 95;" xml:space="preserve">
<style type="text/css">
	.st0{opacity:0.5;fill:#03AFFB;enable-background:new    ;}
	.st1{fill:#03AFFB;}
	.st2{clip-path:url(#SVGID_2_);}
	.st3{opacity:0.6;fill:#FFFFFF;enable-background:new    ;}
	.st4{opacity:0.4;fill:#FFFFFF;enable-background:new    ;}
	.st5{fill:#FFFFFF;}
</style>
<title>Asset 1zpage</title>
<path class="st0" d="M11.8,0h71.4C89.7,0,95,5.3,95,11.8v71.4C95,89.7,89.7,95,83.2,95H11.8C5.3,95,0,89.7,0,83.2V11.8
	C0,5.3,5.3,0,11.8,0z"/>
<path class="st1" d="M18.2,6.4h58.6c6.5,0,11.8,5.3,11.8,11.8v58.6c0,6.5-5.3,11.8-11.8,11.8H18.2c-6.5,0-11.8-5.3-11.8-11.8V18.2
	C6.4,11.7,11.7,6.4,18.2,6.4z"/>
<g>
	<defs>
		<rect id="SVGID_1_" x="23.3" y="19.8" width="50.7" height="55.5"/>
	</defs>
	<clipPath id="SVGID_2_">
		<use xlink:href="#SVGID_1_"  style="overflow:visible;"/>
	</clipPath>
	<g class="st2">
		<path class="st3" d="M48.3,32.1L23.7,46.8c-0.1,0.1-0.2,0.2-0.3,0.3c-0.1,0.1-0.1,0.3-0.1,0.4c0,0.1,0,0.3,0.1,0.4
			c0.1,0.1,0.2,0.2,0.3,0.3l24.6,14.7c0.3,0.2,0.6,0.2,0.8,0l24.6-14.7c0.1-0.1,0.2-0.2,0.3-0.3c0.1-0.1,0.1-0.3,0.1-0.4
			c0-0.1,0-0.3-0.1-0.4c-0.1-0.1-0.2-0.2-0.3-0.3L49.1,32.1C48.8,31.9,48.5,31.9,48.3,32.1z"/>
		<path class="st4" d="M48.3,44.3L23.7,59c-0.1,0.1-0.2,0.2-0.3,0.3c-0.1,0.1-0.1,0.3-0.1,0.4c0,0.1,0,0.3,0.1,0.4
			c0.1,0.1,0.2,0.2,0.3,0.3l24.6,14.7c0.3,0.2,0.6,0.2,0.8,0l24.6-14.7c0.1-0.1,0.2-0.2,0.3-0.3C74,60,74,59.9,74,59.7
			c0-0.1,0-0.3-0.1-0.4c-0.1-0.1-0.2-0.2-0.3-0.3L49.1,44.3C48.8,44.1,48.5,44.1,48.3,44.3z"/>
		<path class="st5" d="M48.3,19.9L23.7,34.6c-0.1,0.1-0.2,0.2-0.3,0.3c-0.1,0.1-0.1,0.3-0.1,0.4c0,0.1,0,0.3,0.1,0.4
			c0.1,0.1,0.2,0.2,0.3,0.3l24.6,14.7c0.3,0.2,0.6,0.2,0.8,0L73.6,36c0.1-0.1,0.2-0.2,0.3-0.3c0.1-0.1,0.1-0.3,0.1-0.4
			c0-0.1,0-0.3-0.1-0.4c-0.1-0.1-0.2-0.2-0.3-0.3L49.1,19.9C48.8,19.7,48.5,19.7,48.3,19.9z"/>
	</g>
</g>
</svg>
